<?xml version="1.0" standalone="no"?>
<!DOCTYPE svg PUBLIC "-//W3C//DTD SVG 20010904//EN"
 "http://www.w3.org/TR/2001/REC-SVG-20010904/DTD/svg10.dtd">
<svg version="1.0" xmlns="http://www.w3.org/2000/svg"
 width="693.000000pt" height="151.000000pt" viewBox="0 0 693.000000 151.000000"
 preserveAspectRatio="xMidYMid meet">

<g transform="translate(0.000000,151.000000) scale(0.100000,-0.100000)"
fill="#000000" stroke="none">
<path d="M3490 1498 c-51 -27 -50 -13 -47 -756 l2 -694 28 -24 c57 -49 74 -40
249 133 l158 157 0 -128 0 -128 29 -29 c33 -32 58 -36 99 -15 15 8 189 177
386 376 l358 363 -128 131 c-413 421 -592 599 -616 612 -40 21 -66 17 -99 -15
l-29 -29 0 -129 0 -128 -152 152 c-161 160 -187 177 -238 151z m613 -526 l217
-217 -220 -220 -220 -220 0 438 c0 240 1 437 3 437 1 0 100 -98 220 -218z"/>
<path d="M1495 1487 c-5 -12 -15 -17 -26 -14 -16 4 -18 1 -13 -19 4 -15 2 -24
-5 -24 -6 0 -11 -4 -11 -10 0 -5 7 -10 15 -10 9 0 15 -9 15 -21 0 -18 2 -19
15 -9 12 10 18 10 30 0 13 -10 15 -9 15 9 0 15 6 21 22 21 19 0 20 1 5 18 -11
12 -13 22 -6 35 9 15 7 17 -14 12 -19 -5 -26 -2 -30 12 -4 17 -4 17 -12 0z"/>
<path d="M1244 1390 c29 -91 13 -139 -84 -246 -33 -36 -64 -80 -69 -97 -5 -20
-14 -31 -22 -29 -11 3 -12 1 -1 -9 6 -7 12 -28 12 -45 0 -26 -5 -34 -22 -37
-23 -4 -23 -4 1 -6 20 -1 21 -3 11 -16 -7 -8 -16 -12 -21 -9 -5 3 -8 0 -7 -8
2 -7 -4 -12 -12 -10 -8 2 -12 0 -8 -3 4 -4 -9 -18 -28 -31 -26 -18 -48 -24
-87 -24 -40 1 -48 3 -34 11 9 5 17 15 17 21 0 6 -10 2 -23 -10 -13 -12 -33
-22 -45 -22 -11 0 -24 -4 -27 -10 -9 -14 280 -13 307 1 11 6 28 30 39 54 10
23 26 49 35 56 16 13 16 8 10 -53 l-8 -67 109 -4 c59 -1 -31 -4 -200 -5 -318
-2 -347 1 -347 38 0 28 21 36 37 14 14 -19 15 -19 11 1 -2 14 -11 20 -28 20
-35 0 -41 -46 -8 -69 19 -14 64 -16 326 -16 288 0 342 -5 342 -29 0 -5 -21 -3
-47 5 -25 8 -58 14 -72 14 -25 -1 -25 -1 -6 -12 11 -7 33 -11 50 -10 16 1 37
-3 45 -8 13 -10 13 -11 0 -9 -35 3 -41 -1 -38 -28 2 -22 9 -29 31 -31 17 -2
37 4 48 14 19 17 21 17 38 -2 11 -10 22 -29 25 -41 6 -20 3 -22 -36 -26 -36
-3 -33 -4 17 -5 36 -1 55 2 47 7 -12 7 -11 13 1 38 18 34 47 62 47 44 0 -6 11
-18 25 -27 32 -21 75 -6 75 26 0 25 -27 37 -43 21 -9 -9 -8 -11 4 -6 23 9 35
-14 16 -32 -26 -26 -80 8 -61 39 12 19 56 28 90 19 21 -6 32 -6 29 0 -9 14 8
11 92 -16 91 -30 119 -47 128 -76 7 -20 8 -21 17 -5 7 12 17 16 34 12 18 -5
22 -3 18 8 -3 8 -11 13 -18 10 -7 -3 -39 6 -71 20 -132 59 -249 81 -296 56
-12 -7 -19 -7 -19 -1 0 23 45 31 168 31 71 0 211 3 311 7 173 6 183 7 197 28
16 25 10 50 -14 60 -21 8 -50 -21 -35 -36 8 -8 11 -6 10 7 -1 11 4 19 13 19
19 0 26 -45 8 -56 -7 -5 -91 -9 -186 -9 -136 0 -172 3 -165 12 4 7 8 30 9 51
1 24 9 44 21 52 17 13 17 14 1 15 -10 0 -18 6 -18 14 0 23 27 38 62 34 26 -2
33 1 36 17 2 11 13 30 25 43 11 12 17 22 12 22 -4 0 -14 -8 -21 -17 -7 -10
-14 -16 -16 -13 -2 3 -13 19 -24 35 -15 21 -20 40 -16 63 3 21 0 32 -8 32 -8
0 -10 -8 -6 -24 l6 -25 -61 32 c-57 29 -63 30 -105 19 -72 -19 -78 -4 -43 100
11 34 18 72 14 85 -6 26 -36 31 -55 8 -10 -12 -9 -16 4 -21 22 -8 20 -20 -10
-68 l-26 -41 -136 7 c-76 4 -144 8 -152 8 -8 1 -27 -2 -41 -5 -23 -6 -27 -3
-32 22 -6 34 -2 43 24 43 25 0 24 22 -1 45 -11 10 -20 29 -20 42 0 26 -15 31
-24 8 -5 -14 -9 -14 -33 2 l-27 18 8 -25z m418 -297 c1 -71 3 -103 5 -72 l4
56 35 -34 c20 -19 46 -33 60 -33 28 0 39 -19 30 -53 -6 -25 -67 -54 -87 -41
-8 4 -9 3 -5 -4 4 -7 3 -12 -2 -12 -6 0 -33 -15 -61 -34 -28 -19 -51 -31 -51
-26 0 5 -3 15 -6 24 -4 10 8 24 35 42 23 15 41 32 41 39 0 7 -16 -3 -36 -21
-20 -19 -40 -32 -45 -28 -5 3 -7 10 -4 15 3 5 -1 6 -9 3 -24 -9 -20 20 6 42
19 17 21 17 15 1 -6 -15 -4 -16 13 -7 22 12 27 45 8 56 -7 4 -8 3 -4 -4 4 -7
2 -12 -3 -12 -6 0 -11 7 -11 15 0 8 -4 15 -10 15 -5 0 -10 -5 -10 -11 0 -5 -4
-7 -10 -4 -5 3 -10 13 -10 21 0 10 12 14 39 14 39 0 40 -1 44 -37 2 -21 3 16
3 82 0 75 -1 91 -3 43 l-4 -78 -39 0 c-36 0 -40 3 -40 25 0 14 5 25 11 25 6 0
9 -8 6 -19 -3 -15 1 -18 19 -17 43 2 42 110 -2 112 -16 0 -20 -4 -16 -18 2
-10 -1 -18 -7 -18 -6 0 -11 14 -11 30 0 17 -3 30 -7 30 -5 0 -7 -34 -5 -75 l4
-75 -56 0 c-53 0 -56 1 -56 25 0 16 6 25 15 25 8 0 15 9 15 20 0 12 -7 20 -16
20 -12 0 -15 7 -12 30 4 29 3 30 -34 30 l-38 0 2 -117 c1 -65 3 -101 5 -80 l4
37 85 0 84 0 0 -75 c0 -62 2 -73 15 -69 30 12 14 -15 -21 -35 l-37 -22 -36 24
c-20 13 -49 31 -66 41 -26 15 -27 15 -7 1 18 -15 32 -65 17 -65 -2 0 -31 17
-63 38 -38 24 -57 42 -55 52 4 12 3 13 -5 1 -17 -23 -31 -3 -25 37 10 73 34
133 51 130 13 -2 18 -18 22 -68 l5 -65 7 45 c4 24 4 82 1 127 l-6 83 162 0
161 0 2 -127z m-262 72 c0 -16 -6 -25 -15 -25 -9 0 -15 9 -15 25 0 16 6 25 15
25 9 0 15 -9 15 -25z m-70 -12 c0 -21 -3 -24 -9 -14 -5 8 -7 20 -4 28 8 21 13
15 13 -14z m254 -25 c-5 -8 -2 -9 9 -5 10 3 17 2 17 -3 0 -6 -9 -10 -20 -10
-20 0 -26 11 -13 23 10 11 15 8 7 -5z m-154 -8 c0 -5 -7 -10 -15 -10 -8 0 -15
5 -15 10 0 6 7 10 15 10 8 0 15 -4 15 -10z m-30 -45 c0 -16 -6 -25 -15 -25 -9
0 -15 9 -15 25 0 16 6 25 15 25 9 0 15 -9 15 -25z m469 -89 c10 -12 8 -17 -9
-26 -26 -14 -31 -11 -23 18 6 26 16 28 32 8z m-307 -28 c-9 -9 -12 -7 -12 12
0 19 3 21 12 12 9 -9 9 -15 0 -24z m323 -18 c-3 -5 -16 -10 -28 -10 -18 0 -19
2 -7 10 20 13 43 13 35 0z m-601 -51 c-3 -5 1 -6 8 -4 25 10 121 -68 156 -125
37 -62 41 -81 12 -55 -11 10 -20 24 -20 30 0 7 -7 19 -16 26 -9 7 -20 23 -25
36 -9 25 -20 27 -106 23 -60 -2 -69 8 -59 65 6 32 8 34 31 23 13 -6 22 -15 19
-19z m496 24 c0 -19 -42 -74 -62 -82 -13 -5 -30 -12 -38 -15 -40 -16 -94 -53
-104 -70 -6 -11 -19 -29 -30 -40 l-18 -21 7 25 c13 44 42 94 69 119 22 21 31
23 78 17 35 -5 50 -4 43 3 -5 5 -23 11 -40 13 -29 4 -28 5 25 31 60 28 70 31
70 20z m107 -34 c-6 -45 -19 -59 -55 -59 -13 0 -20 -4 -17 -10 4 -6 -8 -10
-29 -10 -20 0 -36 2 -36 5 0 2 12 29 27 60 27 54 28 55 71 55 l45 0 -6 -41z
m-832 -25 c-44 -38 -59 -28 -17 10 20 19 39 30 41 24 2 -6 -9 -21 -24 -34z
m458 -18 c14 5 17 -1 18 -32 0 -36 1 -37 10 -14 6 13 8 34 5 46 -4 14 0 24 9
28 23 8 19 -46 -6 -97 -28 -55 -26 -53 -49 -32 -20 18 -21 18 -15 -1 3 -10 -3
-3 -14 17 -11 19 -27 41 -35 48 -9 8 -16 29 -16 47 l0 34 38 -25 c23 -15 46
-23 55 -19z m-88 -116 c10 -17 -16 -41 -39 -38 -30 4 -33 35 -4 41 13 2 26 5
30 6 4 0 10 -4 13 -9z m89 -18 c2 -4 1 -14 -3 -21 -6 -9 -10 -7 -14 8 -5 20 7
29 17 13z m431 -40 c-3 -3 -11 0 -18 7 -9 10 -8 11 6 5 10 -3 15 -9 12 -12z"/>
<path d="M1488 1153 c7 -3 16 -2 19 1 4 3 -2 6 -13 5 -11 0 -14 -3 -6 -6z"/>
<path d="M1480 1070 c0 -5 5 -10 10 -10 6 0 10 5 10 10 0 6 -4 10 -10 10 -5 0
-10 -4 -10 -10z"/>
<path d="M1380 1007 c0 -15 9 -38 20 -49 20 -21 20 -21 35 -2 17 22 19 50 5
59 -5 3 -10 2 -10 -4 0 -12 -32 -2 -42 13 -4 6 -8 -2 -8 -17z"/>
<path d="M1513 990 c4 -17 1 -19 -20 -14 -22 6 -24 4 -21 -17 2 -18 10 -25 31
-27 27 -3 27 -2 25 37 -2 23 -7 41 -12 41 -4 0 -6 -9 -3 -20z"/>
<path d="M1312 975 c0 -16 2 -22 5 -12 2 9 2 23 0 30 -3 6 -5 -1 -5 -18z"/>
<path d="M1722 975 c0 -16 2 -22 5 -12 2 9 2 23 0 30 -3 6 -5 -1 -5 -18z"/>
<path d="M1370 950 c0 -5 9 -14 20 -20 11 -6 20 -9 20 -8 0 2 -9 11 -20 21
-11 9 -20 13 -20 7z"/>
<path d="M1340 941 c0 -6 4 -13 10 -16 6 -3 7 1 4 9 -7 18 -14 21 -14 7z"/>
<path d="M1604 934 c-18 -14 -18 -15 4 -4 12 6 22 13 22 15 0 8 -5 6 -26 -11z"/>
<path d="M1420 914 c0 -2 9 -8 20 -14 11 -6 20 -7 20 -2 0 6 -9 12 -20 15 -11
3 -20 3 -20 1z"/>
<path d="M1477 878 c2 -5 13 -8 23 -8 10 0 21 3 23 8 3 4 -8 7 -23 7 -15 0
-26 -3 -23 -7z"/>
<path d="M1461 810 c0 -33 1 -34 11 -12 8 17 8 26 0 34 -9 9 -12 4 -11 -22z"/>
<path d="M1420 1330 c0 -5 7 -10 15 -10 8 0 15 5 15 10 0 6 -7 10 -15 10 -8 0
-15 -4 -15 -10z"/>
<path d="M1480 1330 c0 -5 7 -10 15 -10 8 0 15 5 15 10 0 6 -7 10 -15 10 -8 0
-15 -4 -15 -10z"/>
<path d="M1535 1330 c3 -5 13 -10 21 -10 8 0 12 5 9 10 -3 6 -13 10 -21 10 -8
0 -12 -4 -9 -10z"/>
<path d="M2074 1216 c5 -19 3 -32 -6 -38 -10 -7 -10 -9 2 -5 19 5 26 46 10 61
-10 8 -11 4 -6 -18z"/>
<path d="M922 1210 c0 -14 2 -19 5 -12 2 6 2 18 0 25 -3 6 -5 1 -5 -13z"/>
<path d="M971 1136 c-6 -16 -10 -34 -8 -40 6 -17 29 33 24 52 -3 13 -7 10 -16
-12z"/>
<path d="M2024 1136 c4 -15 2 -26 -4 -26 -5 0 -10 -5 -10 -11 0 -8 5 -8 15 1
18 15 20 46 4 56 -9 5 -10 -1 -5 -20z"/>
<path d="M902 1143 c-10 -4 -9 -9 4 -24 9 -10 22 -19 27 -19 6 0 2 9 -7 19
-13 15 -14 20 -4 24 7 3 9 5 3 5 -5 0 -16 -2 -23 -5z"/>
<path d="M2075 1120 c-10 -11 -13 -20 -8 -20 13 0 38 29 31 35 -3 3 -13 -4
-23 -15z"/>
<path d="M2103 1108 c-19 -25 -24 -38 -14 -38 11 0 35 39 28 46 -2 3 -9 -1
-14 -8z"/>
<path d="M874 1095 c11 -8 25 -15 30 -15 6 0 2 7 -8 15 -11 8 -25 15 -30 15
-6 0 -2 -7 8 -15z"/>
<path d="M886 1063 c-21 -3 -26 -7 -16 -13 8 -5 22 -4 32 1 11 6 18 6 18 0 0
-5 -5 -12 -10 -14 -6 -3 -5 -4 2 -3 14 3 25 37 11 35 -4 -1 -21 -4 -37 -6z"/>
<path d="M1014 1035 c8 -8 21 -15 28 -15 8 1 6 6 -6 15 -26 20 -42 19 -22 0z"/>
<path d="M2065 1030 c3 -5 14 -10 23 -10 15 0 15 2 2 10 -20 13 -33 13 -25 0z"/>
<path d="M6038 1000 c-109 -58 -130 -220 -39 -311 57 -58 133 -72 229 -44 l52
16 0 85 0 85 -62 -3 c-57 -3 -63 -5 -66 -25 -3 -21 1 -23 38 -23 l41 0 -3 -42
c-3 -42 -4 -43 -46 -52 -55 -12 -109 4 -147 44 -23 24 -29 41 -33 87 -3 49 0
64 20 93 29 43 61 60 115 60 30 0 50 -7 73 -26 30 -25 31 -26 50 -9 24 22 14
37 -41 66 -50 25 -132 25 -181 -1z"/>
<path d="M977 1003 c-10 -9 -9 -53 2 -53 6 0 11 60 5 60 0 0 -4 -3 -7 -7z"/>
<path d="M1015 980 c-8 -13 15 -13 35 0 12 8 11 10 -7 10 -12 0 -25 -4 -28
-10z"/>
<path d="M864 947 c0 -14 8 -24 19 -24 14 -2 15 2 7 17 -16 29 -28 32 -26 7z"/>
<path d="M2110 925 c-13 -14 -19 -25 -13 -25 12 0 48 38 41 45 -2 3 -15 -6
-28 -20z"/>
<path d="M2050 925 c-7 -8 -24 -15 -38 -15 -14 0 -23 -2 -21 -4 8 -7 64 -17
57 -11 -4 4 3 16 15 26 12 10 17 18 11 19 -6 0 -17 -7 -24 -15z"/>
<path d="M930 920 c8 -5 24 -10 35 -10 17 0 17 2 5 10 -8 5 -24 10 -35 10 -17
0 -17 -2 -5 -10z"/>
<path d="M1950 910 c0 -5 4 -10 9 -10 6 0 13 5 16 10 3 6 -1 10 -9 10 -9 0
-16 -4 -16 -10z"/>
<path d="M5190 775 l0 -135 25 0 c25 0 25 0 25 98 0 97 0 98 29 115 38 22 57
21 81 -3 17 -17 20 -33 20 -115 0 -95 0 -95 25 -95 25 0 25 0 25 99 l0 99 37
17 c33 16 40 16 63 4 24 -14 25 -19 28 -117 3 -101 3 -102 27 -102 25 0 25 0
25 100 0 105 -13 151 -45 164 -35 13 -93 6 -119 -15 l-27 -21 -23 21 c-27 25
-91 28 -123 6 -19 -13 -22 -13 -27 0 -3 8 -15 15 -26 15 -19 0 -20 -6 -20
-135z"/>
<path d="M5642 898 c3 -7 29 -66 58 -131 53 -118 53 -118 37 -152 -10 -21 -26
-37 -42 -41 -18 -4 -25 -13 -25 -30 0 -28 18 -31 60 -9 37 19 40 26 116 215
48 121 59 156 47 158 -29 7 -40 -7 -68 -85 -46 -129 -42 -128 -89 -17 -38 90
-44 99 -70 102 -21 3 -27 0 -24 -10z"/>
<path d="M6440 903 c-31 -11 -71 -58 -81 -95 -32 -119 86 -212 203 -160 96 42
105 187 16 242 -32 19 -102 26 -138 13z m117 -59 c24 -15 39 -70 28 -103 -19
-62 -104 -83 -150 -36 -34 33 -35 102 -2 132 37 35 77 37 124 7z"/>
<path d="M6660 908 c0 -2 24 -61 54 -133 47 -112 58 -130 79 -133 22 -3 28 6
72 110 73 173 69 160 38 156 -24 -3 -31 -14 -65 -97 -21 -52 -40 -96 -42 -98
-2 -2 -21 40 -43 94 -35 87 -42 98 -66 101 -15 2 -27 2 -27 0z"/>
<path d="M825 870 c-7 -12 12 -12 40 0 18 8 17 9 -7 9 -15 1 -30 -3 -33 -9z"/>
<path d="M2138 868 c17 -8 26 -8 34 0 9 9 4 12 -22 11 -33 0 -34 -1 -12 -11z"/>
<path d="M2120 850 c0 -14 25 -29 37 -22 7 5 3 11 -13 19 -13 6 -24 8 -24 3z"/>
<path d="M1985 840 c3 -5 16 -15 28 -21 22 -12 22 -12 3 10 -19 21 -43 30 -31
11z"/>
<path d="M1180 756 l25 -14 -28 -13 c-21 -9 -33 -10 -52 -1 -32 15 -35 15 -35
2 0 -5 10 -10 23 -10 l22 -1 -24 -19 c-13 -11 -34 -20 -47 -20 -12 0 -26 -4
-29 -10 -3 -5 -21 -10 -38 -11 l-32 -1 30 -9 c17 -5 31 -5 35 1 3 4 19 12 35
16 17 4 41 15 55 24 14 9 54 29 90 43 52 21 59 26 35 26 -16 0 -43 2 -60 6
l-30 6 25 -15z"/>
<path d="M1818 753 c6 -2 18 -2 25 0 6 3 1 5 -13 5 -14 0 -19 -2 -12 -5z"/>
<path d="M1900 730 c-12 -8 -12 -10 5 -10 11 0 27 5 35 10 12 8 12 10 -5 10
-11 0 -27 -5 -35 -10z"/>
<path d="M949 716 c6 -8 22 -16 34 -19 22 -6 22 -6 -2 14 -27 22 -49 26 -32 5z"/>
<path d="M1301 691 c-1 -27 2 -32 11 -23 8 8 8 17 0 34 -10 22 -11 21 -11 -11z"/>
<path d="M840 702 c0 -5 7 -15 15 -22 8 -7 15 -8 15 -2 0 5 -7 15 -15 22 -8 7
-15 8 -15 2z"/>
<path d="M1980 700 c-12 -8 -9 -10 12 -10 15 0 30 5 33 10 8 13 -25 13 -45 0z"/>
<path d="M922 684 c10 -10 20 -15 24 -12 3 4 -5 12 -18 18 -22 12 -22 12 -6
-6z"/>
<path d="M1157 687 c-11 -29 -9 -53 4 -40 6 6 9 21 7 34 -3 21 -4 22 -11 6z"/>
<path d="M1687 685 c-4 -8 -2 -17 3 -20 6 -4 10 3 10 14 0 25 -6 27 -13 6z"/>
<path d="M2076 681 c-15 -17 -16 -19 -1 -25 9 -3 24 -1 33 4 14 9 13 10 -6 5
-22 -6 -23 -5 -13 14 14 26 9 27 -13 2z"/>
<path d="M1840 681 c0 -5 7 -15 17 -22 15 -13 15 -12 4 9 -12 23 -21 28 -21
13z"/>
<path d="M2140 675 c-7 -9 -11 -18 -8 -20 3 -3 11 1 18 10 7 9 11 18 8 20 -3
3 -11 -1 -18 -10z"/>
<path d="M843 644 c-34 -14 -57 -39 -26 -27 26 10 80 43 68 42 -5 0 -24 -7
-42 -15z"/>
<path d="M1808 650 c14 -6 22 -17 21 -32 -1 -16 -3 -18 -6 -6 -5 21 -33 32
-33 13 0 -8 -4 -15 -10 -15 -5 0 -10 -6 -10 -14 0 -8 -6 -17 -12 -20 -7 -3 4
-4 25 -1 41 6 45 -2 27 -51 -11 -27 -11 -27 -93 -22 -60 4 -73 3 -49 -4 19 -5
59 -8 89 -6 l56 3 18 65 c16 59 16 67 2 83 -9 9 -23 17 -32 16 -10 0 -8 -3 7
-9z"/>
<path d="M918 638 c9 -9 8 -16 -5 -30 -9 -10 -11 -18 -6 -18 17 0 34 26 27 44
-3 9 -11 16 -17 16 -7 0 -7 -4 1 -12z"/>
<path d="M1208 639 c-10 -5 -18 -18 -19 -27 0 -14 -2 -13 -9 3 l-9 20 1 -20
c0 -28 16 -75 17 -52 1 11 9 17 25 17 17 0 25 7 28 25 4 20 3 23 -8 14 -11 -9
-14 -8 -14 4 0 8 6 18 13 20 6 3 8 6 2 6 -5 0 -18 -4 -27 -10z m19 -45 c-3 -3
-12 -4 -19 -1 -8 3 -5 6 6 6 11 1 17 -2 13 -5z"/>
<path d="M1268 635 c-3 -11 -9 -28 -13 -37 -6 -14 -2 -18 16 -17 21 0 21 1 6
8 -17 6 -17 8 -3 20 9 7 24 10 37 6 14 -5 19 -4 15 4 -4 6 -16 11 -26 11 -10
0 -20 6 -22 12 -3 7 -7 4 -10 -7z"/>
<path d="M1708 626 c-24 -18 -23 -29 2 -14 16 11 22 9 34 -7 9 -11 15 -15 15
-10 0 10 -23 45 -30 45 -2 0 -12 -7 -21 -14z"/>
<path d="M1070 617 c0 -10 8 -17 18 -17 9 0 13 4 7 8 -5 4 -13 11 -17 16 -5 5
-8 2 -8 -7z"/>
<path d="M2150 615 c33 -19 46 -19 30 0 -7 8 -22 15 -34 15 -20 -1 -20 -2 4
-15z"/>
<path d="M2075 600 c10 -11 20 -20 22 -20 2 0 -1 9 -7 20 -6 11 -16 20 -22 20
-6 0 -3 -9 7 -20z"/>
<path d="M1363 603 c9 -2 23 -2 30 0 6 3 -1 5 -18 5 -16 0 -22 -2 -12 -5z"/>
<path d="M1563 603 c9 -2 25 -2 35 0 9 3 1 5 -18 5 -19 0 -27 -2 -17 -5z"/>
<path d="M1110 590 c-12 -8 -11 -10 7 -10 12 0 25 5 28 10 8 13 -15 13 -35 0z"/>
<path d="M1308 593 c6 -2 18 -2 25 0 6 3 1 5 -13 5 -14 0 -19 -2 -12 -5z"/>
<path d="M1480 570 c0 -16 5 -30 10 -30 6 0 10 5 10 11 0 8 4 8 14 -1 13 -10
14 -7 12 17 -5 39 -6 41 -16 18 -7 -17 -9 -17 -9 -2 -2 30 -21 18 -21 -13z"/>
<path d="M1633 593 c9 -2 23 -2 30 0 6 3 -1 5 -18 5 -16 0 -22 -2 -12 -5z"/>
<path d="M1004 575 c-10 -8 -14 -15 -8 -15 5 0 19 7 30 15 10 8 14 15 8 15 -5
0 -19 -7 -30 -15z"/>
<path d="M1431 568 c-1 -16 4 -28 9 -28 12 0 12 8 0 35 -8 18 -9 17 -9 -7z"/>
<path d="M1570 573 c0 -12 5 -25 10 -28 13 -8 13 15 0 35 -8 12 -10 11 -10 -7z"/>
<path d="M1693 583 c9 -2 23 -2 30 0 6 3 -1 5 -18 5 -16 0 -22 -2 -12 -5z"/>
<path d="M1982 565 c6 -14 13 -23 16 -21 7 7 -9 46 -18 46 -5 0 -4 -11 2 -25z"/>
<path d="M1618 555 c-3 -14 -2 -25 2 -25 4 0 10 11 12 25 3 14 2 25 -2 25 -4
0 -10 -11 -12 -25z"/>
<path d="M1290 561 c0 -16 12 -41 20 -41 4 0 5 11 2 25 -4 23 -22 36 -22 16z"/>
<path d="M1374 555 c11 -8 22 -12 25 -9 6 6 -19 24 -34 24 -5 -1 -1 -7 9 -15z"/>
<path d="M1678 545 c-3 -14 -2 -25 2 -25 4 0 10 11 12 25 3 14 2 25 -2 25 -4
0 -10 -11 -12 -25z"/>
<path d="M1875 560 c3 -5 12 -10 20 -10 8 0 17 5 20 10 4 6 -5 10 -20 10 -15
0 -24 -4 -20 -10z"/>
<path d="M1250 548 c0 -8 7 -21 15 -28 19 -16 19 -1 0 24 -12 16 -15 17 -15 4z"/>
<path d="M1731 550 c-1 -18 16 -46 23 -40 2 3 -2 16 -9 30 -8 15 -14 19 -14
10z"/>
<path d="M1110 546 c0 -8 51 -13 56 -5 3 5 -9 9 -25 9 -17 0 -31 -2 -31 -4z"/>
<path d="M1065 510 c-10 -11 -13 -20 -7 -20 6 0 16 9 22 20 6 11 9 20 7 20 -2
0 -12 -9 -22 -20z"/>
<path d="M1385 519 c-30 -8 -30 -8 5 -5 39 4 82 -12 77 -28 -6 -18 -27 -18
-27 0 0 24 -9 13 -13 -17 -3 -17 -13 -27 -36 -35 -17 -5 -29 -13 -25 -17 4 -3
15 -2 26 4 11 6 29 8 40 5 14 -3 27 3 40 17 l19 22 -10 -22 c-14 -28 -14 -43
0 -43 5 0 8 3 5 8 -2 4 2 18 9 31 l13 24 12 -23 c10 -18 9 -24 -1 -31 -11 -7
-9 -9 6 -10 l20 0 -20 -10 c-16 -8 -15 -8 8 -4 16 3 35 1 43 -6 10 -9 14 -9
14 0 0 6 -6 14 -14 17 -16 6 -15 19 1 50 7 11 10 29 9 40 -2 13 5 21 23 26 23
6 22 7 -6 4 -18 -1 -33 1 -33 6 0 10 -145 8 -185 -3z m128 -13 c6 -15 -1 -26
-15 -26 -4 0 -8 9 -8 20 0 23 15 27 23 6z m57 -19 c0 -8 -3 -17 -7 -20 -9 -9
-34 13 -27 24 8 14 34 11 34 -4z"/>
<path d="M1117 500 c6 -22 23 -38 23 -21 0 17 -12 41 -20 41 -5 0 -6 -9 -3
-20z"/>
<path d="M1300 500 c-20 -6 -21 -8 -5 -8 11 0 29 3 40 8 25 11 -1 11 -35 0z"/>
<path d="M1940 489 c7 -11 14 -19 16 -16 7 7 -7 37 -17 37 -6 0 -5 -9 1 -21z"/>
<path d="M1223 483 c9 -2 25 -2 35 0 9 3 1 5 -18 5 -19 0 -27 -2 -17 -5z"/>
<path d="M1865 469 c-11 -17 1 -21 15 -4 8 9 8 15 2 15 -6 0 -14 -5 -17 -11z"/>
<path d="M1590 431 c0 -9 30 -24 36 -18 2 1 -6 8 -16 15 -11 7 -20 8 -20 3z"/>
<path d="M1315 410 c3 -5 16 -10 28 -9 21 0 21 1 2 9 -28 12 -37 12 -30 0z"/>
<path d="M1430 411 c0 -6 0 -14 1 -17 0 -4 -5 -11 -13 -16 -11 -8 -11 -9 0 -6
8 2 13 7 12 12 -1 5 4 12 10 16 9 5 9 9 1 14 -6 4 -11 2 -11 -3z"/>
<path d="M64 115 c-42 -90 -47 -105 -31 -105 10 0 15 4 12 10 -3 5 -1 19 5 30
16 30 76 28 86 -2 5 -13 7 -26 6 -30 -1 -5 13 -8 32 -8 l34 0 -45 103 c-25 56
-47 103 -47 104 -1 1 -24 -45 -52 -102z m56 -27 c0 -5 -14 -8 -30 -8 l-31 0
17 32 16 32 14 -25 c7 -13 13 -27 14 -31z"/>
<path d="M878 115 c3 -100 4 -105 25 -105 21 0 22 3 19 105 -3 100 -4 105 -25
105 -21 0 -22 -3 -19 -105z"/>
<path d="M973 204 c-6 -16 15 -37 29 -28 4 3 8 14 8 25 0 23 -28 26 -37 3z"/>
<path d="M1484 210 c-56 -22 -83 -109 -48 -158 31 -45 101 -64 157 -43 18 7
26 19 29 45 4 34 2 36 -24 36 -25 0 -28 -3 -28 -35 0 -43 -21 -55 -58 -34 -47
26 -53 128 -11 170 27 27 65 24 94 -7 l25 -27 0 25 c0 22 -6 26 -37 32 -49 8
-73 7 -99 -4z"/>
<path d="M519 175 c-24 -25 -25 -29 -17 -92 9 -80 26 -97 64 -68 16 13 16 14
2 9 -16 -5 -18 1 -18 54 0 49 3 61 18 65 15 4 15 5 0 6 -10 1 -18 11 -20 26
l-3 26 -26 -26z"/>
<path d="M2940 175 c-24 -24 -26 -30 -19 -91 8 -80 26 -99 65 -69 16 13 16 14
2 9 -16 -5 -18 1 -18 54 0 49 3 61 18 65 15 4 15 5 0 6 -10 1 -18 11 -20 26
l-3 26 -25 -26z"/>
<path d="M400 143 c-29 -20 -25 -41 16 -78 20 -19 33 -38 29 -44 -10 -16 -22
-13 -45 11 -20 22 -20 22 -20 1 0 -29 56 -40 82 -17 27 25 22 50 -17 80 -19
14 -35 30 -35 35 0 16 39 9 49 -8 9 -16 10 -16 11 3 0 27 -41 37 -70 17z"/>
<path d="M228 86 c4 -72 18 -92 54 -80 13 4 34 7 48 5 25 -2 25 -1 22 68 -3
65 -5 71 -25 71 -20 0 -22 -4 -18 -56 2 -39 -1 -59 -10 -65 -22 -14 -29 0 -29
62 0 55 -2 59 -22 59 -22 0 -23 -3 -20 -64z"/>
<path d="M605 80 c0 -68 1 -70 25 -70 26 0 27 7 21 123 -1 11 -9 17 -23 17
-22 0 -23 -4 -23 -70z"/>
<path d="M671 136 c-9 -11 -7 -15 11 -19 25 -7 44 5 34 22 -10 15 -31 14 -45
-3z"/>
<path d="M740 135 c-16 -19 -6 -47 15 -39 10 4 13 13 9 26 -5 15 -2 19 12 16
34 -6 26 -34 -16 -62 -42 -28 -49 -46 -26 -65 11 -9 20 -10 35 -1 15 8 27 8
42 0 11 -7 23 -9 27 -6 9 10 1 120 -10 133 -14 18 -73 16 -88 -2z m60 -74 c0
-22 -15 -35 -30 -26 -7 4 -7 13 0 26 14 25 30 25 30 0z"/>
<path d="M965 80 c0 -68 1 -70 25 -70 25 0 25 1 22 70 -3 64 -5 70 -25 70 -20
0 -22 -5 -22 -70z"/>
<path d="M1056 134 c-20 -19 -20 -30 -2 -37 18 -7 26 1 26 25 0 23 26 24 35 1
4 -12 0 -22 -10 -28 -42 -25 -65 -48 -65 -65 0 -23 26 -33 51 -19 15 7 24 7
33 0 8 -6 20 -9 27 -6 16 6 14 112 -3 133 -15 17 -74 15 -92 -4z m62 -76 c-2
-13 -11 -24 -20 -26 -21 -4 -24 18 -6 36 19 19 30 14 26 -10z"/>
<path d="M1195 79 c0 -64 1 -69 22 -69 20 0 22 6 25 57 2 47 7 58 21 61 17 3
19 -2 15 -57 -3 -59 -2 -61 22 -61 25 0 25 1 20 67 l-5 68 -60 2 -60 2 0 -70z"/>
<path d="M1676 128 c-52 -73 33 -169 94 -108 26 26 27 90 2 113 -27 25 -78 22
-96 -5z m72 -32 c4 -51 -5 -86 -22 -86 -17 0 -26 22 -26 65 0 46 9 67 29 63
11 -2 17 -16 19 -42z"/>
<path d="M1828 78 c19 -40 35 -74 36 -75 1 -1 18 31 37 72 30 65 33 75 17 75
-10 0 -15 -5 -12 -13 2 -7 -2 -28 -10 -47 l-14 -34 -16 38 c-9 21 -13 42 -10
47 3 5 -10 9 -29 9 l-33 0 34 -72z"/>
<path d="M1956 131 c-10 -11 -18 -36 -18 -56 0 -67 59 -99 98 -52 10 12 12 16
4 9 -18 -16 -25 -15 -44 4 -27 27 -20 44 19 44 30 0 35 3 35 23 0 13 -5 28
-12 35 -18 18 -63 14 -82 -7z m62 -19 c3 -17 -2 -22 -17 -22 -16 0 -21 6 -21
26 0 33 33 30 38 -4z"/>
<path d="M2078 80 c3 -67 5 -70 28 -70 21 0 24 4 19 20 -3 10 -3 35 1 55 6 32
10 36 33 33 18 -2 27 2 29 15 4 20 -27 24 -47 5 -11 -10 -14 -10 -18 0 -3 6
-14 12 -26 12 -21 0 -22 -4 -19 -70z"/>
<path d="M2210 135 c7 -9 10 -37 8 -70 -3 -51 -1 -55 19 -55 20 0 22 6 25 57
2 47 7 58 21 61 17 3 19 -2 15 -57 -3 -59 -2 -61 22 -61 24 0 25 3 22 48 -6
92 -4 90 -78 90 -55 0 -63 -2 -54 -13z"/>
<path d="M2378 79 c3 -65 5 -69 28 -69 23 0 24 3 24 59 0 44 4 60 15 65 21 8
28 -13 23 -74 -3 -48 -2 -50 22 -50 24 0 25 2 22 50 -4 50 11 86 29 74 5 -3 9
-32 9 -65 0 -56 1 -59 25 -59 24 0 25 3 25 58 0 32 -5 63 -12 70 -15 15 -55
16 -63 2 -5 -7 -11 -8 -18 -1 -7 5 -39 9 -72 10 l-60 0 3 -70z"/>
<path d="M2646 134 c-32 -32 -32 -87 0 -119 21 -21 47 -19 75 6 23 19 23 20 2
9 -18 -8 -26 -7 -43 10 -30 30 -25 40 20 40 43 0 50 13 30 51 -16 29 -42 25
-30 -5 10 -27 5 -36 -22 -36 -20 0 -23 12 -8 41 13 23 -2 26 -24 3z"/>
<path d="M2758 79 c3 -65 5 -69 28 -69 23 0 24 3 24 61 0 52 2 60 18 57 14 -3
17 -14 17 -61 0 -52 2 -57 23 -57 20 0 22 4 22 58 0 31 -4 62 -8 69 -4 6 -33
11 -67 12 l-60 0 3 -70z"/>
</g>
</svg>
